<svg width="64" height="64" viewBox="0 0 64 64" fill="none" xmlns="http://www.w3.org/2000/svg">
  <circle cx="32" cy="32" r="32" fill="#25D366"/>
  <path
    d="M20.7 18.7C16.2 23.2 15.1 30.1 17.4 35.7L15 44.3L23.9 41.9C29.2 44.6 36.1 43.6 40.7 39.2C47 33 47 22.9 40.7 16.7C34.5 10.5 25.6 10.5 20.7 18.7Z"
    fill="white"
  />
  <path
    d="M38.1 36.5C37.6 37.8 35.6 38.9 34.3 39.2C33.4 39.4 32.3 39.5 30 38.7C27.2 37.7 24.9 35.4 24.4 34.9C23.9 34.3 22.2 32.1 22.2 29.7C22.2 27.3 23.4 26.2 23.9 25.6C24.4 25.1 25 24.9 25.5 24.9C25.9 24.9 26.3 24.9 26.6 24.9C27.1 25 27.3 25.2 27.6 25.9C27.9 26.6 28.7 28.8 28.8 29.1C29 29.5 29 29.9 28.9 30.2C28.7 30.5 28.6 30.7 28.3 31C28.1 31.2 27.9 31.4 27.7 31.7C27.5 32 27.2 32.3 27.5 32.8C27.8 33.4 28.8 35 30.2 36.2C32 37.7 33.5 38.3 34.1 38.6C34.6 38.8 35.1 38.7 35.5 38.3C35.9 37.8 36.6 36.9 37.1 36.2C37.5 35.5 38 35.6 38.6 35.8C39.2 36 42 37.4 42.7 37.7C43.4 38.1 43.8 38.2 44 38.4C44.2 38.7 44.2 39.6 43.6 40.6C43 41.6 41.3 42.8 39.8 43.1C38.4 43.4 37.2 43.5 33.8 42.2C29.9 40.7 27.4 37.4 27.1 37.1C26.8 36.7 23.2 32.1 23.2 27.5C23.2 25.2 24 23.7 24.7 22.7C25.3 21.9 26.2 21.4 27.2 21.4C27.8 21.4 28.3 21.4 28.7 21.4C29.3 21.5 29.6 21.7 29.9 22.5C30.3 23.4 31.1 25.6 31.2 25.8C31.4 26.2 31.4 26.6 31.2 27C31 27.4 30.8 27.6 30.5 27.9C30.3 28.1 30.1 28.3 29.9 28.6C29.7 28.9 29.5 29.3 29.8 29.8C30.1 30.4 31.2 32.2 32.9 33.6C35 35.4 36.7 36.2 37.3 36.5C37.8 36.7 38.2 36.6 38.1 36.5Z"
    fill="#25D366"
  />
</svg>
